<?xml version="1.0" standalone="no"?>
<!DOCTYPE svg PUBLIC "-//W3C//DTD SVG 1.1//EN" "http://www.w3.org/Graphics/SVG/1.1/DTD/svg11.dtd" >
<svg xmlns="http://www.w3.org/2000/svg">
<metadata></metadata>
<defs>
<font id="klavikalight" horiz-adv-x="1067" >
<font-face units-per-em="2048" ascent="1536" descent="-512" />
<missing-glyph horiz-adv-x="450" />
<glyph unicode="&#xfb01;" horiz-adv-x="1198" d="M72 895v102h186v209q0 123 69.5 181.5t188.5 58.5q109 0 205 -31l-16 -92q-47 10 -93.5 15t-87.5 5q-86 0 -116.5 -34.5t-30.5 -116.5v-195h647v-997h-119v895h-528v-895h-119v895h-186zM905 1186v219h119v-219h-119z" />
<glyph unicode="&#xfb02;" horiz-adv-x="1198" d="M72 895v102h186v209q0 123 69.5 181.5t188.5 58.5q102 0 195 -29l-17 -92q-53 10 -97 14t-73 4q-86 0 -116.5 -34.5t-30.5 -116.5v-195h297l-12 -102h-285v-895h-119v895h-186zM905 0v1405l119 16v-1421h-119z" />
<glyph unicode="&#xfb03;" horiz-adv-x="1929" d="M72 897v100h186v209q0 123 69.5 181.5t188.5 58.5q43 0 101.5 -7t103.5 -22l-16 -92q-98 18 -181 18q-86 0 -116.5 -34.5t-30.5 -116.5v-195h612v209q0 123 69.5 181.5t188.5 58.5q43 0 101.5 -7t103.5 -22l-16 -92q-98 18 -181 18q-86 0 -116.5 -34.5t-30.5 -116.5v-195 h647v-997h-119v897h-528v-897h-119v897h-612v-897h-119v897h-186zM1636 1186v219h119v-219h-119z" />
<glyph unicode="&#xfb04;" horiz-adv-x="1929" d="M72 897v100h186v209q0 123 69.5 181.5t188.5 58.5q43 0 101.5 -7t103.5 -22l-16 -92q-98 18 -181 18q-86 0 -116.5 -34.5t-30.5 -116.5v-195h612v209q0 123 69.5 181.5t188.5 58.5q102 0 195 -29l-17 -92q-53 10 -97 14t-73 4q-86 0 -116.5 -34.5t-30.5 -116.5v-195h297 l-12 -100h-285v-897h-119v897h-612v-897h-119v897h-186zM1636 0v1405l119 16v-1421h-119z" />
<glyph horiz-adv-x="2048" />
<glyph horiz-adv-x="2048" />
<glyph unicode="&#xd;" horiz-adv-x="450" />
<glyph unicode=" "  horiz-adv-x="450" />
<glyph unicode="&#x09;" horiz-adv-x="450" />
<glyph unicode="&#xa0;" horiz-adv-x="450" />
<glyph unicode="!" horiz-adv-x="516" d="M195 0v176h127v-176h-127zM199 694v711h118v-711l-24 -344h-70z" />
<glyph unicode="&#x22;" horiz-adv-x="724" d="M154 905v500h104v-500h-104zM467 905v500h104v-500h-104z" />
<glyph unicode="#" horiz-adv-x="1472" d="M123 367l6 100h279l20 420h-278l6 100h278l19 336h108l-18 -336h399l19 336h108l-18 -336h278l-6 -100h-279l-20 -420h279l-7 -100h-278l-19 -367h-108l18 367h-399l-18 -367h-109l18 367h-278zM516 467h399l21 420h-399z" />
<glyph unicode="$" horiz-adv-x="1046" d="M143 41l21 96q92 -29 182 -40t166 -11q94 0 148.5 12.5t82 40t34.5 72.5t7 111q0 68 -5 109.5t-31.5 72.5t-85 55.5t-164.5 58.5q-127 41 -198 74t-104.5 73t-39.5 95t-6 144q0 86 14 148t53 103t106.5 61.5t174.5 24.5v205h114v-205q74 -4 145.5 -11t131.5 -23l-15 -101 q-86 16 -164.5 23.5t-158.5 7.5q-90 0 -145.5 -6t-86 -30.5t-41 -72t-10.5 -129.5q0 -70 4 -109.5t23.5 -64t61.5 -43t116 -43.5q154 -53 240 -90t129 -78t52 -98t9 -149q0 -90 -15.5 -154t-52 -104.5t-101 -60t-163.5 -23.5v-205h-114v205q-78 4 -158 17t-156 42z" />
<glyph unicode="%" horiz-adv-x="1726" d="M113 909v205q0 127 69.5 198.5t223.5 71.5t222 -71.5t68 -198.5v-205q0 -127 -68.5 -198.5t-221.5 -71.5q-154 0 -223.5 71.5t-69.5 198.5zM215 907q0 -86 41 -132t150 -46t148.5 46t39.5 132v209q0 86 -40 132t-148 46q-109 0 -150 -46t-41 -132v-209zM537 14l559 1370 l90 -36l-559 -1368zM1020 250v205q0 127 69.5 198.5t223.5 71.5t222.5 -71.5t68.5 -198.5v-205q0 -127 -69 -198.5t-222 -71.5q-154 0 -223.5 71.5t-69.5 198.5zM1122 248q0 -86 41 -132t150 -46t148.5 46t39.5 132v209q0 86 -40 132t-148 46q-109 0 -150 -46t-41 -132v-209 z" />
<glyph unicode="&#x26;" horiz-adv-x="1263" d="M174 301v131q0 92 49 166t139 92q-90 33 -122.5 93.5t-32.5 142.5v166q0 293 383 292q39 0 86 -4t96 -10t96 -14t86 -19l-14 -100q-84 16 -178 28.5t-176 12.5q-137 0 -198.5 -43t-61.5 -143v-177q0 -80 51 -128t160 -48h645v-106h-201v-598q-90 -27 -187.5 -41 t-193.5 -14q-231 0 -328.5 75.5t-97.5 245.5zM293 307q0 -61 14.5 -104t49 -68.5t93 -38t146.5 -12.5q141 0 270 31v518h-307q-119 0 -192.5 -48t-73.5 -165v-113z" />
<glyph unicode="'" horiz-adv-x="411" d="M154 905v500h104v-500h-104z" />
<glyph unicode="(" horiz-adv-x="616" d="M154 623q0 258 78.5 485t236.5 453l86 -60q-84 -131 -138.5 -243.5t-86 -217t-45 -206t-13.5 -211.5q0 -111 13.5 -212.5t45 -206t86 -217t138.5 -243.5l-86 -59q-158 225 -236.5 452.5t-78.5 485.5z" />
<glyph unicode=")" horiz-adv-x="616" d="M61 -256q82 131 137.5 243.5t87 217t45 206t13.5 212.5t-13.5 212t-45 205.5t-87 217t-137.5 243.5l86 60q158 -225 237 -452.5t79 -485.5t-79 -485.5t-237 -452.5z" />
<glyph unicode="*" horiz-adv-x="976" d="M113 1053v75h307l-168 258l63 41l172 -266l172 266l64 -41l-168 -258h309v-75h-307l168 -256l-63 -41l-175 268l-174 -268l-63 41l166 256h-303z" />
<glyph unicode="+" horiz-adv-x="1097" d="M133 444v107h359v364h114v-364h359v-107h-359v-364h-114v364h-359z" />
<glyph unicode="," horiz-adv-x="493" d="M154 -197l73 197h-45v176h127v-176l-98 -221z" />
<glyph unicode="-" horiz-adv-x="741" d="M133 524v101h475v-101h-475z" />
<glyph unicode="." horiz-adv-x="495" d="M184 0v176h127v-176h-127z" />
<glyph unicode="/" horiz-adv-x="901" d="M133 -240l504 1624h121l-506 -1624h-119z" />
<glyph unicode="0" horiz-adv-x="1146" d="M164 330v663q0 76 21.5 140.5t70.5 111.5t127 72.5t190 25.5q113 0 191 -25.5t127 -72.5t70.5 -111.5t21.5 -140.5v-663q0 -78 -21.5 -141.5t-70.5 -110.5t-127 -72.5t-191 -25.5t-190.5 25.5t-126.5 72.5t-70.5 110.5t-21.5 141.5zM283 338q0 -63 14 -110.5t48 -79 t89 -47t139 -15.5t139.5 15.5t89.5 47t48 78.5t14 111v647q0 63 -14 110.5t-48 79t-89.5 47t-139.5 15.5t-139 -15.5t-89 -47t-48 -78.5t-14 -111v-647z" />
<glyph unicode="1" horiz-adv-x="667" d="M20 1124l347 199h106v-1323h-119v1182l-276 -156z" />
<glyph unicode="2" horiz-adv-x="991" d="M109 0v106q66 82 111.5 138.5t85.5 105.5t81 100.5t96 124.5q59 78 102.5 135.5t71 104.5t40 88t12.5 84v33q0 57 -8.5 99t-38 67.5t-84 38t-146.5 12.5q-72 0 -153.5 -15.5t-135.5 -31.5l-22 102q27 8 63.5 17.5t79.5 17.5t89 12t91 4q119 0 194 -21.5t117 -62t57 -100 t15 -135.5v-31q0 -55 -11 -101t-39.5 -99.5t-77 -120t-121.5 -164.5q-49 -66 -85 -112t-70 -89t-73 -89t-90 -112h578v-106h-729z" />
<glyph unicode="3" horiz-adv-x="1005" d="M113 20l18 103q72 -16 148.5 -26.5t146.5 -10.5q156 0 226.5 41t70.5 162v131q0 98 -60.5 145t-170.5 47h-275v107h262q115 0 167 50t52 136v146q0 104 -55 145t-190 41q-70 0 -151 -9t-146 -22l-17 103q63 14 147.5 24t162.5 10q199 0 283.5 -71.5t84.5 -212.5v-144 q0 -96 -33.5 -153t-130.5 -94q86 -18 137.5 -77t51.5 -163v-147q0 -164 -104.5 -232.5t-315.5 -68.5q-66 0 -149 9t-160 31z" />
<glyph unicode="4" horiz-adv-x="1105" d="M61 356v127l601 840h159v-864h203v-103h-203v-356h-119v356h-641zM176 459h526v741z" />
<glyph unicode="5" horiz-adv-x="1013" d="M133 25l21 98q76 -20 157.5 -28.5t155.5 -8.5q82 0 136 12.5t87 39t47.5 70.5t14.5 109v89q0 59 -10.5 101t-37 68.5t-72.5 39t-116 14.5q-86 2 -171 2t-161 2v690h676v-106h-557v-478q33 0 58.5 -1t51 -1t55.5 -1t71 -1q92 -2 155.5 -24.5t102.5 -64.5t56 -98t17 -126 v-113q0 -80 -19.5 -141.5t-66.5 -103t-124.5 -63t-192.5 -21.5q-80 0 -169 9t-165 36z" />
<glyph unicode="6" horiz-adv-x="1060" d="M164 305v578q0 123 23.5 210t80 143t152.5 81.5t244 25.5q20 0 49.5 -2t61.5 -5t63.5 -8t58.5 -13l-14 -101q-41 10 -96.5 16.5t-102.5 6.5q-129 0 -208 -17.5t-122 -59.5t-57 -110.5t-14 -168.5v-197q25 10 60.5 19.5t75.5 17.5t81 12t75 4q102 0 170 -21.5t109 -61.5 t57.5 -100t16.5 -136v-113q0 -78 -19.5 -138.5t-63.5 -101t-117 -63t-177 -22.5q-211 0 -299 86t-88 239zM283 301q0 -63 18 -104t53 -66t85 -35t112 -10q143 0 200.5 49t57.5 166v123q0 53 -10.5 92t-37 64.5t-72.5 38t-118 12.5q-74 0 -153.5 -19.5t-134.5 -42.5v-268z " />
<glyph unicode="7" horiz-adv-x="874" d="M61 1217v106h766v-100l-573 -1223h-121l574 1217h-646z" />
<glyph unicode="8" horiz-adv-x="1134" d="M154 295v41q0 57 13 105t46 88t84 76t129 71q-141 66 -189.5 146.5t-48.5 174.5v27q0 68 18.5 126t62.5 101t117 67.5t181 24.5q109 0 181.5 -24.5t116.5 -67.5t62.5 -101t18.5 -126v-27q0 -53 -10 -98t-38 -84t-75 -72.5t-118 -66.5q78 -35 131 -71t84.5 -76t46 -88 t14.5 -105v-41q0 -166 -97.5 -240.5t-316.5 -74.5t-316 74.5t-97 240.5zM272 301q0 -61 15.5 -102t50.5 -65.5t91 -36t138 -11.5q162 0 228.5 47t66.5 168v41q0 51 -14 88t-48 66.5t-90.5 58.5t-142.5 63q-86 -35 -142 -62.5t-90 -58t-48.5 -67.5t-14.5 -88v-41zM307 989 q0 -47 12.5 -81t43 -63.5t81 -56t123.5 -59.5q74 33 124 59.5t81 55t43 63.5t12 82v51q0 92 -55 144.5t-205 52.5t-205 -51t-55 -146v-51z" />
<glyph unicode="9" horiz-adv-x="1050" d="M123 905v113q0 76 20.5 137.5t65.5 102t116.5 63t174.5 22.5q211 0 299 -82.5t88 -242.5v-578q0 -123 -22.5 -210t-79 -143t-152.5 -81.5t-246 -25.5q-20 0 -50 2t-61.5 6t-63.5 9t-58 13l14 101q41 -10 96 -17.5t103 -7.5q131 0 210.5 17.5t121.5 59.5t55.5 109.5 t13.5 169.5v197q-25 -10 -60.5 -19.5t-75.5 -17.5t-81 -12t-76 -4q-102 0 -169.5 21.5t-108.5 61.5t-57.5 99t-16.5 137zM242 899q0 -53 10 -92t36.5 -64.5t72.5 -38t118 -12.5q74 0 154 19.5t135 42.5v268q0 125 -71.5 170t-196.5 45q-72 0 -121 -11.5t-80 -38t-44 -67.5 t-13 -98v-123z" />
<glyph unicode=":" horiz-adv-x="495" d="M184 0v176h127v-176h-127zM184 655v176h127v-176h-127z" />
<glyph unicode=";" horiz-adv-x="493" d="M154 -197l73 197h-45v176h127v-176l-98 -221zM182 655v176h127v-176h-127z" />
<glyph unicode="&#x3c;" horiz-adv-x="1126" d="M102 457v86l816 475l51 -86l-748 -432l752 -434l-51 -86z" />
<glyph unicode="=" horiz-adv-x="1042" d="M164 281v96h715v-96h-715zM164 633v96h715v-96h-715z" />
<glyph unicode="&#x3e;" horiz-adv-x="1126" d="M154 66l751 434l-747 432l51 86l815 -475v-86l-819 -477z" />
<glyph unicode="?" horiz-adv-x="937" d="M123 1391q72 16 149.5 25t149.5 9q119 0 192.5 -20.5t113.5 -64.5t53.5 -112.5t13.5 -162.5q0 -90 -5.5 -146.5t-26 -100.5t-59 -83t-106.5 -92q-66 -51 -113 -90t-100 -80l-70 90q51 39 100.5 78t123.5 100q49 41 76.5 70t41 60.5t16.5 74.5t3 115q0 76 -7 126t-34 79.5 t-78 41t-139 11.5q-57 0 -130 -7t-145 -24zM315 0v197h127v-197h-127z" />
<glyph unicode="@" horiz-adv-x="1538" d="M133 682q0 156 50 285t138.5 222t208 144t258.5 51q152 0 266.5 -43t192.5 -117.5t118 -178t40 -224.5q0 -90 -22.5 -163.5t-66.5 -128t-111.5 -84t-157.5 -29.5q-51 0 -93.5 17.5t-68.5 45.5q-43 -23 -94.5 -40t-118.5 -17q-90 0 -123 49t-21 123l39 229 q16 96 66.5 140.5t165.5 44.5q25 0 55.5 -4.5t64 -10.5t65.5 -15t56 -22l-75 -434q16 -8 36.5 -13t45.5 -5q70 0 118.5 24.5t79.5 67.5t44.5 99.5t13.5 121.5q0 227 -136.5 350t-378.5 123q-115 0 -215 -43t-174.5 -123t-117.5 -192.5t-43 -249.5q0 -135 37.5 -246.5 t114.5 -191.5t193.5 -124t276.5 -44q104 0 201.5 22.5t195.5 65.5l31 -82q-96 -53 -203.5 -77.5t-224.5 -24.5q-170 0 -305 50t-228.5 141t-143.5 221t-50 290zM623 588q-8 -47 7 -62.5t66 -15.5q39 0 91.5 18.5t86.5 42.5l58 326q-84 23 -146 23q-59 0 -85.5 -21.5 t-36.5 -75.5q-10 -59 -20.5 -117.5t-20.5 -117.5z" />
<glyph unicode="A" horiz-adv-x="1271" d="M72 0l475 1364h178l475 -1364h-119l-129 358h-635l-127 -358h-118zM354 463h561l-280 831z" />
<glyph unicode="B" horiz-adv-x="1144" d="M184 0v1364h512q139 0 216 -66.5t77 -201.5v-164q0 -82 -35.5 -136.5t-119.5 -84.5q80 -10 139 -75t59 -179v-178q0 -72 -24.5 -124.5t-66.5 -86t-99.5 -51t-122.5 -17.5h-535zM305 106h416q98 0 144 45.5t46 127.5v174q0 86 -53 139t-172 53h-381v-539zM305 752h352 q113 0 162 52t49 134v174q0 145 -170 145h-393v-505z" />
<glyph unicode="C" horiz-adv-x="1046" d="M154 375v614q0 94 24.5 168t77.5 125t140 76.5t210 25.5q74 0 162 -7t166 -23l-14 -105q-70 12 -154 19.5t-150 7.5q-92 0 -157.5 -15.5t-106.5 -49t-59.5 -89t-18.5 -135.5v-610q0 -80 18.5 -135.5t59.5 -89t106.5 -49t157.5 -15.5q66 0 150 7t154 20l14 -105 q-78 -16 -166 -23t-162 -7q-123 0 -210 25.5t-140 76.5t-77.5 124t-24.5 169z" />
<glyph unicode="D" horiz-adv-x="1208" d="M184 0v1364h451q125 0 207 -30.5t131 -84t68.5 -128t19.5 -160.5v-558q0 -86 -19.5 -160.5t-68.5 -128t-131 -84t-207 -30.5h-451zM305 109h332q172 0 237.5 71.5t65.5 216.5v570q0 145 -65.5 216.5t-237.5 71.5h-332v-1146z" />
<glyph unicode="E" horiz-adv-x="1097" d="M184 0v1364h768v-109h-647v-505h602v-109h-602v-532h649v-109h-770z" />
<glyph unicode="F" horiz-adv-x="1046" d="M184 0v1364h777v-109h-656v-526h610v-108h-610v-621h-121z" />
<glyph unicode="G" horiz-adv-x="1169" d="M154 377v610q0 96 23.5 170t77.5 125t140 76.5t211 25.5q88 0 192.5 -10t182.5 -26l-12 -105q-86 14 -179.5 23.5t-181.5 9.5q-96 0 -159.5 -16.5t-102.5 -51t-55.5 -90t-16.5 -133.5v-606q0 -76 14.5 -130t51.5 -90t99.5 -53.5t158.5 -17.5q63 0 143 7t144 24v483h121 v-565q-96 -29 -206 -43t-210 -14q-125 0 -209 26.5t-134 76.5t-71.5 124t-21.5 170z" />
<glyph unicode="H" horiz-adv-x="1269" d="M184 0v1364h121v-608h660v608h120v-1364h-120v647h-660v-647h-121z" />
<glyph unicode="I" horiz-adv-x="509" d="M195 0v1364h120v-1364h-120z" />
<glyph unicode="J" horiz-adv-x="479" d="M-20 -309q76 74 116.5 116.5t60 72.5t23.5 55.5t4 64.5v1364h121v-1352q0 -63 -5 -103t-29.5 -79t-74 -89t-137.5 -136z" />
<glyph unicode="K" horiz-adv-x="1165" d="M184 0v1364h121v-1364h-121zM352 694l543 670h149l-546 -670l585 -694h-151z" />
<glyph unicode="L" horiz-adv-x="1011" d="M184 0v1364h121v-1255h615v-109h-736z" />
<glyph unicode="M" horiz-adv-x="1628" d="M174 0l41 1364h176l424 -1114l422 1114h176l41 -1364h-121l-28 1243l-398 -1067h-186l-397 1067l-29 -1243h-121z" />
<glyph unicode="N" horiz-adv-x="1306" d="M184 0v1364h176l648 -1247v1247h114v-1364h-176l-647 1245v-1245h-115z" />
<glyph unicode="O" horiz-adv-x="1261" d="M154 385v594q0 88 25.5 161.5t81.5 128t147.5 85t222.5 30.5t222 -30.5t147.5 -85t82 -128t25.5 -161.5v-594q0 -88 -25.5 -161.5t-82 -128t-147.5 -85t-222 -30.5t-222.5 30.5t-147.5 85t-81.5 128t-25.5 161.5zM274 389q0 -145 80 -223t277 -78t276.5 78t79.5 223v586 q0 145 -80 223t-276 78q-197 0 -277 -78t-80 -223v-586z" />
<glyph unicode="P" horiz-adv-x="1114" d="M184 0v1364h463q102 0 174 -22.5t116 -63.5t64.5 -99.5t20.5 -129.5v-213q0 -72 -20.5 -130.5t-64.5 -99.5t-115.5 -63.5t-174.5 -22.5h-342v-520h-121zM305 629h344q129 0 190.5 47t61.5 160v213q0 113 -61.5 159.5t-190.5 46.5h-344v-626z" />
<glyph unicode="Q" horiz-adv-x="1261" d="M154 385v594q0 88 25.5 161.5t81.5 128t147.5 85t222.5 30.5t222 -30.5t147.5 -85t82 -128t25.5 -161.5v-594q0 -78 -19.5 -143.5t-62.5 -117.5t-110.5 -87t-163.5 -49l118 -273l-110 -47l-135 312q-129 0 -219.5 30.5t-146.5 85t-80.5 128t-24.5 161.5zM274 389 q0 -145 80 -223t277 -78t276.5 78t79.5 223v586q0 145 -80 223t-276 78q-197 0 -277 -78t-80 -223v-586z" />
<glyph unicode="R" horiz-adv-x="1267" d="M184 0v1364h484q102 0 173.5 -22.5t115.5 -63.5t64.5 -99.5t20.5 -129.5v-209q0 -113 -50 -192t-171 -107l365 -541h-137l-355 524h-26h-363v-524h-121zM305 633h365q129 0 190.5 47t61.5 160v209q0 113 -61.5 159.5t-190.5 46.5h-365v-622z" />
<glyph unicode="S" horiz-adv-x="1114" d="M154 45l22 98q184 -55 367 -55q88 0 145 13.5t91 43t47.5 75.5t13.5 112q0 80 -5.5 127t-34 77.5t-91 51t-174.5 47.5q-123 29 -196 57.5t-111 72.5t-49 110.5t-11 168.5q0 84 18.5 147.5t65.5 106.5t129 64.5t211 21.5q90 0 186 -13t166 -34l-14 -102q-76 16 -165 28.5 t-169 12.5q-102 0 -162.5 -13.5t-92.5 -41t-42 -72.5t-10 -109q0 -84 5 -131t33.5 -76.5t87 -49t167.5 -46.5q135 -35 210.5 -64.5t112.5 -71.5t46.5 -104.5t9.5 -158.5q0 -84 -17.5 -150.5t-63.5 -112.5t-129 -70.5t-212 -24.5q-90 0 -193.5 15t-191.5 50z" />
<glyph unicode="T" horiz-adv-x="1062" d="M51 1255v109h961v-109h-420v-1255h-121v1255h-420z" />
<glyph unicode="U" horiz-adv-x="1290" d="M174 387v977h121v-977q0 -143 88 -221t262 -78t262 78t88 221v977h121v-977q0 -86 -26.5 -160.5t-84 -130t-146.5 -86t-214 -30.5t-214 30.5t-146.5 86t-84 130t-26.5 160.5z" />
<glyph unicode="V" horiz-adv-x="1208" d="M41 1364h119l444 -1255l445 1255h118l-481 -1364h-164z" />
<glyph unicode="W" horiz-adv-x="1822" d="M51 1364h117l342 -1272l305 1272h193l305 -1272l342 1272h117l-369 -1364h-189l-303 1278l-303 -1278h-188z" />
<glyph unicode="X" horiz-adv-x="1187" d="M72 0l456 692l-442 672h131l377 -576l377 576h131l-443 -672l457 -692h-131l-391 596l-391 -596h-131z" />
<glyph unicode="Y" horiz-adv-x="1112" d="M31 1364h125l399 -823l401 823h125l-465 -944v-420h-120v420z" />
<glyph unicode="Z" horiz-adv-x="1179" d="M143 0v109l744 1146h-723v109h858v-109l-746 -1146h760v-109h-893z" />
<glyph unicode="[" horiz-adv-x="636" d="M205 -258v1876h370v-111h-251v-1654h251v-111h-370z" />
<glyph unicode="\" horiz-adv-x="901" d="M143 1384h121l504 -1624h-119z" />
<glyph unicode="]" horiz-adv-x="636" d="M61 -147h252v1654h-252v111h371v-1876h-371v111z" />
<glyph unicode="^" horiz-adv-x="929" d="M102 834l297 571h131l297 -571l-96 -54l-266 514l-266 -514z" />
<glyph unicode="_" horiz-adv-x="909" d="M-2 -154h913v-102h-913v102z" />
<glyph unicode="`" horiz-adv-x="634" d="M154 1288l59 90q68 -47 137.5 -92t130.5 -84l-55 -84q-63 35 -135 79t-137 91z" />
<glyph unicode="a" horiz-adv-x="993" d="M133 258q0 158 73 217.5t220 59.5h295v194q0 104 -56.5 143t-179.5 39q-74 0 -149.5 -9t-145.5 -23l-18 100q59 16 144 27.5t163 11.5q195 0 278 -74t83 -215v-729h-103l-8 78q-72 -45 -156 -71.5t-182 -26.5q-133 0 -195.5 71.5t-62.5 206.5zM252 256q0 -43 6 -76 t23.5 -53.5t49 -30.5t85.5 -10q74 0 155.5 27.5t149.5 74.5v240h-291q-102 0 -140 -37t-38 -135z" />
<glyph unicode="b" horiz-adv-x="1040" d="M174 16v1389l119 16v-479q61 33 143 54.5t185 21.5q152 0 219 -79t67 -212v-395q0 -84 -20.5 -149.5t-66.5 -110.5t-122.5 -68.5t-189.5 -23.5q-33 0 -76 3t-89 7t-90 11t-79 15zM293 109q59 -10 117.5 -15.5t111.5 -5.5q80 0 132.5 16.5t82 47t40.5 75.5t11 101v401 q0 90 -43 132t-141 42q-92 0 -165.5 -22.5t-145.5 -63.5v-708z" />
<glyph unicode="c" horiz-adv-x="819" d="M113 324v350q0 80 19.5 144.5t63.5 108.5t116.5 67.5t176.5 23.5q51 0 113 -7t115 -22l-15 -98q-121 20 -213 20q-139 0 -198.5 -50t-59.5 -183v-359q0 -133 59.5 -183t198.5 -50q92 0 213 20l15 -98q-53 -14 -114.5 -21t-113.5 -7q-104 0 -176.5 23.5t-116.5 67.5 t-63.5 108.5t-19.5 144.5z" />
<glyph unicode="d" horiz-adv-x="1050" d="M143 256v455q0 68 16.5 125t53.5 97t95.5 62.5t142.5 22.5q78 0 149.5 -8.5t157.5 -24.5v420l119 16v-1421h-109l-6 94q-76 -57 -164 -85.5t-172 -28.5q-147 0 -215 70.5t-68 205.5zM262 256q0 -86 35 -128t137 -42q92 0 172 35t152 92v664q-163 34 -304 34h-8 q-98 0 -141 -49t-43 -151v-455z" />
<glyph unicode="e" horiz-adv-x="980" d="M123 342v313q0 76 18.5 142.5t62.5 116t115.5 77t176.5 27.5q104 0 174.5 -27.5t111.5 -77t58.5 -116t17.5 -142.5v-192h-616v-125q0 -68 12 -116t43 -78.5t81 -45t124 -14.5q78 0 159.5 13.5t155.5 33.5l21 -96q-70 -25 -161 -40t-183 -15q-104 0 -176 25.5t-115 73.5 t-61.5 114.5t-18.5 148.5zM242 569h499v90q0 125 -53 190.5t-192 65.5q-141 0 -197.5 -64.5t-56.5 -191.5v-90z" />
<glyph unicode="f" horiz-adv-x="731" d="M72 895v102h186v209q0 123 69.5 181.5t188.5 58.5q43 0 101.5 -7t103.5 -22l-16 -92q-98 18 -181 18q-86 0 -116.5 -34.5t-30.5 -116.5v-195h307l-12 -102h-295v-895h-119v895h-186z" />
<glyph unicode="g" horiz-adv-x="1050" d="M133 655v13q0 84 20.5 149.5t65.5 109.5t118 67.5t179 23.5q100 0 168 -21h274v-86l-124 -10q66 -84 65 -233v-13q0 -170 -92 -260t-291 -90q-72 0 -133 12q-41 -35 -59.5 -65.5t-18.5 -65.5q0 -29 19.5 -48t70.5 -23q47 -4 79 -6.5t61.5 -5.5t63.5 -5t83 -6 q137 -10 192.5 -71.5t55.5 -165.5q0 -78 -21.5 -131.5t-71 -86t-131 -47t-202.5 -14.5q-35 0 -79 3t-91 9t-94 15.5t-86 21.5l18 94q74 -16 165 -28.5t171 -12.5q100 0 160.5 10.5t93.5 32t42 53t9 74.5q0 74 -35 107t-125 39q-47 2 -76.5 4t-56 4t-57.5 4t-80 6 q-111 10 -154 60.5t-43 115.5q0 41 20.5 84t74.5 84q-147 84 -148 299zM248 651q0 -141 65.5 -192t202.5 -51t202.5 54t65.5 189v21q0 135 -59 189t-209 54t-209 -53t-59 -190v-21z" />
<glyph unicode="h" d="M174 0v1405l119 16v-512q39 18 90 38t104.5 35t106.5 25.5t98 10.5q117 0 164 -60.5t47 -164.5v-793h-119v807q0 55 -27.5 77.5t-80.5 22.5q-31 0 -77 -9t-98 -24.5t-106.5 -36t-101.5 -44.5v-793h-119z" />
<glyph unicode="i" horiz-adv-x="466" d="M174 0v997h119v-997h-119zM174 1186v219h119v-219h-119z" />
<glyph unicode="j" horiz-adv-x="456" d="M-16 -338q63 57 101 92t57.5 62.5t25.5 56.5t6 74v1050h119v-1069q0 -55 -7 -92t-32 -71.5t-71 -76.5t-122 -112zM174 1186v219h119v-219h-119z" />
<glyph unicode="k" horiz-adv-x="964" d="M174 0v1405l119 16v-1421h-119zM346 506l393 491h148l-398 -491l414 -506h-151z" />
<glyph unicode="l" horiz-adv-x="466" d="M174 0v1405l119 16v-1421h-119z" />
<glyph unicode="m" horiz-adv-x="1677" d="M174 0v997h105l8 -90q39 18 91 39t106.5 36t108.5 25.5t99 10.5q80 0 126 -28.5t67 -82.5q43 20 96 40t109.5 35t111.5 25.5t101 10.5q117 0 163.5 -60.5t46.5 -164.5v-793h-118v807q0 55 -28 77.5t-81 22.5q-35 0 -82 -9t-98 -24.5t-103.5 -36t-99.5 -44.5v-793h-119 v807q0 55 -27.5 77.5t-80.5 22.5q-31 0 -77 -9t-98 -24.5t-106.5 -36t-101.5 -44.5v-793h-119z" />
<glyph unicode="n" d="M174 0v997h105l8 -90q39 18 91 39t106.5 36t108.5 25.5t99 10.5q117 0 164 -60.5t47 -164.5v-793h-119v807q0 55 -27.5 77.5t-80.5 22.5q-31 0 -77 -9t-98 -24.5t-106.5 -36t-101.5 -44.5v-793h-119z" />
<glyph unicode="o" horiz-adv-x="1019" d="M123 342v313q0 76 21.5 142.5t67.5 116t120 77t178 27.5t178 -27.5t120 -77t67.5 -116t21.5 -142.5v-313q0 -78 -21.5 -143.5t-67.5 -114.5t-120 -76.5t-178 -27.5t-178 27.5t-120 76.5t-67.5 114.5t-21.5 143.5zM242 338q0 -127 63.5 -189.5t204.5 -62.5t204.5 62.5 t63.5 189.5v321q0 127 -63.5 189.5t-204.5 62.5t-204.5 -62.5t-63.5 -189.5v-321z" />
<glyph unicode="p" horiz-adv-x="1046" d="M174 -420v1417h109l6 -94q76 57 164 86t172 29q147 0 214.5 -70.5t67.5 -206.5v-454q0 -137 -69.5 -222t-237.5 -85q-78 0 -149.5 8t-157.5 24v-415zM293 121q168 -35 311 -35q98 0 141 49t43 152v454q0 86 -34.5 128t-137.5 42q-92 0 -171.5 -34.5t-151.5 -92.5v-663z " />
<glyph unicode="q" horiz-adv-x="1040" d="M133 270v396q0 84 20.5 149.5t66.5 110.5t123 68.5t189 23.5q33 0 76 -3t89 -7t90 -11.5t79 -15.5v-1384l-118 -17v475q-61 -33 -143.5 -54t-184.5 -21q-152 0 -219.5 78.5t-67.5 211.5zM252 268q0 -90 43 -132t141 -42q92 0 166 22.5t146 63.5v709q-59 10 -118 15 t-112 5q-80 0 -132 -16t-82 -47t-41 -76t-11 -100v-402z" />
<glyph unicode="r" horiz-adv-x="638" d="M174 0v997h107l6 -151q80 53 157.5 99t149.5 73l14 -117q-78 -35 -160.5 -86t-154.5 -98v-717h-119z" />
<glyph unicode="s" horiz-adv-x="890" d="M143 31l21 96q66 -20 137.5 -30.5t126.5 -10.5q70 0 113 7t67.5 25.5t32.5 50.5t8 79q0 53 -4 86t-26.5 53.5t-68.5 35.5t-132 36q-94 23 -147.5 47t-81 58t-35 82t-7.5 116q0 125 71 190.5t255 65.5q70 0 146.5 -9.5t136.5 -25.5l-13 -100q-59 12 -138 20t-140 8 q-66 0 -104.5 -9t-60 -27.5t-28 -47t-6.5 -69.5q0 -51 4 -82t22.5 -51.5t57.5 -33.5t109 -32q111 -29 172 -53.5t92 -58t38 -79.5t7 -116q0 -68 -14.5 -119t-51 -85t-101 -51t-165.5 -17q-76 0 -156.5 14t-136.5 37z" />
<glyph unicode="t" horiz-adv-x="759" d="M61 895v102h193v236l119 16v-252h305l-12 -102h-293v-688q0 -33 3 -56.5t15 -39t35 -22.5t61 -7q86 0 179 29l22 -93q-43 -16 -99.5 -27t-109.5 -11q-119 0 -172 48t-53 167v700h-193z" />
<glyph unicode="u" d="M164 205v792h119v-807q0 -55 27.5 -77.5t80.5 -22.5q31 0 77 8t98 23.5t106.5 37t101.5 46.5v792h119v-997h-105l-8 90q-41 -18 -92 -38.5t-105.5 -36t-108.5 -25.5t-99 -10q-117 0 -164 60t-47 165z" />
<glyph unicode="v" horiz-adv-x="919" d="M31 997h121l307 -913l309 913h121l-338 -997h-182z" />
<glyph unicode="w" horiz-adv-x="1437" d="M51 997h113l205 -917l270 917h160l268 -917l207 917h112l-227 -997h-178l-262 911l-262 -911h-178z" />
<glyph unicode="x" horiz-adv-x="903" d="M51 0l336 502l-330 495h127l267 -399l268 399h127l-332 -495l338 -502h-129l-272 408l-271 -408h-129z" />
<glyph unicode="y" horiz-adv-x="909" d="M31 997h121l307 -913l309 913h121l-338 -997l-148 -403h-116l149 403h-67z" />
<glyph unicode="z" horiz-adv-x="894" d="M113 0v96l538 805h-524l2 96h647l-2 -96l-536 -805h555v-96h-680z" />
<glyph unicode="{" horiz-adv-x="632" d="M123 610v107h33q49 0 69.5 19.5t20.5 64.5v614q0 98 50 150.5t155 52.5h141v-107h-150q-78 0 -77 -81v-623q0 -53 -26 -97t-103 -46q78 -4 103.5 -47.5t25.5 -96.5v-622q0 -82 77 -82h150v-107h-141q-104 0 -154.5 52.5t-50.5 150.5v614q0 45 -20.5 64.5t-69.5 19.5h-33z " />
<glyph unicode="|" horiz-adv-x="509" d="M215 -430v2048h80v-2048h-80z" />
<glyph unicode="}" horiz-adv-x="632" d="M41 -184h149q78 0 78 82v622q0 53 25.5 96t103.5 48q-78 2 -103.5 46t-25.5 97v623q0 82 -78 81h-149v107h141q104 0 154.5 -52.5t50.5 -150.5v-614q0 -45 20.5 -64.5t69.5 -19.5h33v-107h-33q-49 0 -69.5 -19.5t-20.5 -64.5v-614q0 -98 -50 -150.5t-155 -52.5h-141v107z " />
<glyph unicode="~" horiz-adv-x="1013" d="M102 459q41 104 99.5 167.5t152.5 63.5q57 0 100.5 -25.5t81 -56t73.5 -56.5t79 -26q35 0 59.5 14.5t42 39t32 56.5t26.5 64l84 -36q-14 -43 -34.5 -85t-49.5 -75t-69 -53.5t-95 -20.5q-57 0 -100 24.5t-81 55.5t-74 55.5t-79 24.5q-61 0 -94 -44t-68 -126z" />
<glyph unicode="&#xa1;" horiz-adv-x="516" d="M195 821v176h127v-176h-127zM199 303l24 344h70l24 -344v-706h-118v706z" />
<glyph unicode="&#xa2;" horiz-adv-x="860" d="M123 508v350q0 74 16.5 134.5t53 104.5t96 70.5t147.5 32.5v186h115v-186q43 -4 89 -10t87 -16l-14 -99q-121 20 -213 21q-139 0 -198.5 -50.5t-59.5 -183.5v-358q0 -133 59 -183.5t199 -50.5q92 0 213 21l14 -98q-41 -10 -87 -17.5t-89 -11.5v-184h-115v186 q-88 6 -147.5 32.5t-96 70.5t-53 104.5t-16.5 134.5z" />
<glyph unicode="&#xa3;" horiz-adv-x="1116" d="M164 629v102h190q-47 72 -73.5 154t-26.5 159q0 154 82 226.5t291 72.5q35 0 74.5 -3t79.5 -9t77 -13t68 -15l-19 -103q-57 16 -135 26.5t-141 10.5q-78 0 -128 -9t-79 -30.5t-40 -60.5t-11 -97q0 -80 30.5 -155.5t79.5 -153.5h408l-8 -102h-357q23 -45 23 -119 q0 -98 -45 -195.5t-150 -208.5h609v-106h-766v106q49 41 92 89.5t74.5 100.5t49 105.5t17.5 106.5q0 63 -27 121h-239z" />
<glyph unicode="&#xa4;" horiz-adv-x="1105" d="M154 252l127 127q-23 33 -32 73t-9 87v295q0 96 41 157l-127 129l77 78l134 -135q70 37 188 37q59 0 105.5 -10.5t80.5 -26.5l135 135l78 -78l-129 -129q23 -33 32 -72.5t9 -84.5v-295q0 -96 -41 -158l129 -129l-78 -78l-135 135q-72 -37 -186 -37q-115 0 -188 35 l-134 -133zM350 565q0 -47 7.5 -83t30 -59.5t61 -35.5t104.5 -12q63 0 103 12t61.5 35.5t29 59.5t7.5 83v242q0 47 -7.5 83t-29 59.5t-61.5 35.5t-103 12q-66 0 -104.5 -12t-61 -35.5t-30 -59.5t-7.5 -83v-242z" />
<glyph unicode="&#xa5;" horiz-adv-x="1112" d="M51 1323h125l379 -782l381 782h125l-293 -594h207v-96h-254l-105 -213v-43h359v-92h-359v-285h-120v285h-359v92h359v43l-105 213h-254v96h207z" />
<glyph unicode="&#xa6;" horiz-adv-x="509" d="M215 424h80v-854h-80v854zM215 764v854h80v-854h-80z" />
<glyph unicode="&#xa7;" horiz-adv-x="1146" d="M143 1159q0 123 64.5 174t193.5 51q63 0 149.5 -13t151.5 -36l-18 -92q-37 8 -76 15.5t-76.5 12.5t-69.5 8t-52 3q-47 0 -77 -6t-45.5 -21.5t-20.5 -40t-5 -63.5q0 -113 22.5 -244t59.5 -274.5t84 -295t96 -304.5l-106 -33q-55 164 -105.5 322.5t-88.5 306t-59.5 280.5 t-21.5 250zM455 -332l18 92q37 -8 76 -15t77 -12t69.5 -8.5t52.5 -3.5q47 0 76.5 6.5t45 21.5t20.5 40t5 64q0 113 -22.5 243.5t-59.5 274t-84 295t-96 305.5l106 33q55 -164 105.5 -323t88.5 -306.5t59.5 -280.5t21.5 -250q0 -123 -64.5 -174t-193.5 -51q-63 0 -149.5 13.5 t-151.5 35.5z" />
<glyph unicode="&#xa8;" horiz-adv-x="802" d="M164 1143v135h127v-135h-127zM512 1143v135h127v-135h-127z" />
<glyph unicode="&#xa9;" horiz-adv-x="1691" d="M143 682q0 145 50.5 274t142.5 224.5t221 150.5t289 55t289 -55t221 -150.5t142 -224.5t50 -274t-50 -273t-142 -223.5t-221 -150.5t-289 -55t-289 55t-221 150.5t-142.5 223.5t-50.5 273zM242 682q0 -127 42 -238.5t119.5 -194.5t189.5 -131t253 -48t252.5 48t189.5 131 t120 194.5t42 238.5t-42 239.5t-120 195.5t-189.5 131t-252.5 48t-253 -48t-189.5 -131t-119.5 -195.5t-42 -239.5zM604 535v294q0 109 55.5 159t190.5 50q55 0 108.5 -7t98.5 -17l-10 -80q-43 10 -99.5 15t-91.5 5q-96 0 -129 -25.5t-33 -101.5v-290q0 -39 7.5 -63.5 t25.5 -39t49 -19.5t80 -5q35 0 91.5 5t99.5 15l10 -80q-45 -10 -98.5 -17t-108.5 -7q-135 0 -190.5 50t-55.5 159z" />
<glyph unicode="&#xaa;" horiz-adv-x="774" d="M164 971q0 104 45 138t137 34h166v114q0 49 -28.5 70t-96.5 21q-49 0 -94 -6.5t-90 -16.5l-15 76q41 10 89.5 17t105.5 7q119 0 168 -39.5t49 -123.5v-455h-76l-6 41q-31 -18 -77 -35.5t-93 -17.5q-92 0 -138 42t-46 134zM252 971q0 -59 25.5 -79t74.5 -20q37 0 84 16.5 t76 39.5v135h-162q-57 0 -77.5 -16.5t-20.5 -75.5z" />
<glyph unicode="&#xab;" horiz-adv-x="978" d="M113 500l262 395l90 -61l-221 -334l221 -334l-90 -62zM494 500l262 395l90 -61l-221 -334l221 -334l-90 -62z" />
<glyph unicode="&#xac;" horiz-adv-x="1159" d="M133 444v107h832v-471h-111v364h-721z" />
<glyph unicode="&#xad;" horiz-adv-x="741" d="M133 524v101h475v-101h-475z" />
<glyph unicode="&#xae;" horiz-adv-x="1026" d="M143 1055q0 76 26 143.5t74 118.5t116.5 79.5t154.5 28.5t154.5 -28.5t115.5 -79.5t73 -119t26 -143q0 -76 -26 -143.5t-73 -118t-115.5 -80t-154.5 -29.5t-154.5 29.5t-116.5 80t-74 118t-26 143.5zM215 1055q0 -61 19.5 -116.5t57.5 -96.5t93 -64.5t129 -23.5t129 23.5 t92 64.5t56.5 96t19.5 117q0 61 -19.5 116.5t-56.5 97.5t-92 65.5t-129 23.5t-129 -23.5t-93 -65.5t-57.5 -97.5t-19.5 -116.5zM403 893v340h132q55 0 78.5 -23.5t23.5 -64.5v-51q0 -29 -10.5 -47.5t-38.5 -30.5l92 -123h-59l-86 113h-82v-113h-50zM453 1051h82q31 0 42 11 t11 32v51q0 27 -12.5 35t-40.5 8h-82v-137z" />
<glyph unicode="&#xaf;" horiz-adv-x="770" d="M143 1159v98h484v-98h-484z" />
<glyph unicode="&#xb0;" horiz-adv-x="733" d="M154 1128q0 90 55 152.5t158 62.5q102 0 157.5 -62.5t55.5 -152.5t-55.5 -151.5t-157.5 -61.5q-104 0 -158.5 61.5t-54.5 151.5zM227 1128q0 -57 35 -102t105 -45t104.5 45t34.5 102q0 59 -35 104.5t-104 45.5q-70 0 -105 -45t-35 -105z" />
<glyph unicode="&#xb1;" horiz-adv-x="1159" d="M164 0v106h831v-106h-831zM164 608v107h358v364h115v-364h358v-107h-358v-364h-115v364h-358z" />
<glyph unicode="&#xb2;" horiz-adv-x="790" d="M154 831v82q23 29 41 51.5t39.5 50t51 65.5t76.5 98q53 68 82 110.5t41.5 70t14.5 47t2 42.5v27q0 29 -4 50t-19.5 34.5t-43 19.5t-77.5 6q-47 0 -96 -8t-90 -18l-16 86q41 14 100 23t106 9q131 0 186.5 -49t55.5 -141v-53q0 -25 -4 -49.5t-19.5 -56.5t-43 -75 t-72.5 -102q-43 -55 -70.5 -92t-47 -61.5t-32 -41t-24.5 -30.5h325v-95h-462z" />
<glyph unicode="&#xb3;" horiz-adv-x="765" d="M143 844l15 86q51 -14 102 -19.5t84 -5.5q96 0 128 26.5t32 90.5v74q0 109 -129 108h-170v92h172q66 0 87 27t21 66v100q0 57 -32.5 77.5t-104.5 20.5q-37 0 -84 -4t-94 -14l-14 84q41 12 95 18t93 6q125 0 182.5 -48t57.5 -136v-102q0 -49 -18.5 -81t-65.5 -59 q102 -39 102 -153v-78q0 -109 -59.5 -157t-206.5 -48q-39 0 -91 7t-102 22z" />
<glyph unicode="&#xb4;" horiz-adv-x="634" d="M154 1202q61 39 130.5 84t137.5 92l59 -90q-66 -47 -137.5 -91t-134.5 -79z" />
<glyph unicode="&#xb5;" d="M164 -403v1400h119v-807q0 -55 27.5 -77.5t80.5 -22.5q31 0 77 8t98 23.5t106.5 37t101.5 46.5v792h119v-997h-105l-8 90q-41 -18 -92 -38.5t-105.5 -36t-108.5 -25.5t-99 -10q-29 0 -51.5 4t-40.5 10v-397h-119z" />
<glyph unicode="&#xb6;" horiz-adv-x="1028" d="M154 950q0 88 31.5 164t87 131t131 87t163.5 32v-825q-88 0 -163.5 31.5t-131 87t-87 130t-31.5 162.5zM526 -346q63 63 100.5 101t55.5 60.5t22.5 35t4.5 26.5v1487h114v-1483q0 -29 -4 -49t-25.5 -50t-67.5 -77t-130 -129z" />
<glyph unicode="&#xb7;" horiz-adv-x="495" d="M184 567v176h127v-176h-127z" />
<glyph unicode="&#xb8;" horiz-adv-x="641" d="M143 -395l19 71q29 -8 62.5 -13t62.5 -5q63 0 89.5 18.5t26.5 53.5q0 63 -96 63q-29 0 -62.5 -4t-56.5 -8l48 219h86l-31 -143q14 4 29.5 5t27.5 1q61 0 105.5 -31.5t44.5 -97.5q0 -68 -49.5 -113t-145.5 -45q-43 0 -84 8t-76 21z" />
<glyph unicode="&#xb9;" horiz-adv-x="673" d="M123 1532l223 129h82v-830h-102v711l-162 -86z" />
<glyph unicode="&#xba;" horiz-adv-x="802" d="M164 1018v186q0 94 54 157.5t183 63.5q63 0 108.5 -17t73 -47t41 -70t15.5 -87v-186q0 -96 -54.5 -159.5t-183.5 -63.5t-183 63.5t-54 159.5zM252 1016q0 -143 149 -144q80 0 116 36t36 108v190q0 70 -36 106t-116 36q-150 0 -149 -142v-190z" />
<glyph unicode="&#xbb;" horiz-adv-x="978" d="M133 176l221 334l-221 334l90 61l262 -395l-262 -395zM514 176l221 334l-221 334l90 61l262 -395l-262 -395z" />
<glyph unicode="&#xbc;" horiz-adv-x="1677" d="M123 1194l223 129h82v-829h-102v710l-162 -86zM457 -20l536 1396l84 -33l-534 -1396zM907 186v99l348 544h127v-553h121v-90h-121v-186h-98v186h-377zM1012 276h272v445z" />
<glyph unicode="&#xbd;" horiz-adv-x="1695" d="M123 1194l223 129h82v-829h-102v710l-162 -86zM457 -20l536 1396l84 -33l-534 -1396zM1059 0v82q23 29 41 51.5t39.5 50t51.5 65.5t77 97q53 68 81.5 111t41 70.5t14.5 47t2 41.5v27q0 29 -4 50.5t-19.5 34.5t-43 19.5t-76.5 6.5q-47 0 -96.5 -8.5t-90.5 -18.5l-16 86 q41 14 100.5 23.5t106.5 9.5q131 0 186 -49t55 -142v-53q0 -25 -4 -49.5t-19.5 -56t-43 -74.5t-72.5 -103q-43 -55 -70.5 -92t-47 -61.5t-32 -40.5t-24.5 -31h326v-94h-463z" />
<glyph unicode="&#xbe;" horiz-adv-x="1738" d="M143 510l15 86q51 -14 102 -19.5t84 -5.5q96 0 128 27t32 90v74q0 109 -129 108h-170v93h172q66 0 87 26.5t21 65.5v100q0 57 -32.5 77.5t-104.5 20.5q-37 0 -84 -4t-94 -14l-14 84q41 12 95 18t93 6q125 0 182.5 -48t57.5 -136v-102q0 -49 -18.5 -81t-65.5 -58 q102 -39 102 -154v-78q0 -109 -59.5 -157t-206.5 -48q-39 0 -91 7.5t-102 21.5zM518 -20l537 1396l84 -33l-535 -1396zM969 186v99l348 544h127v-553h121v-90h-121v-186h-98v186h-377zM1073 276h273v445z" />
<glyph unicode="&#xbf;" horiz-adv-x="937" d="M143 -63q0 88 5.5 145t26 101t59 83t106.5 92q66 51 113 90t100 80l70 -90q-25 -20 -49.5 -38.5t-51 -39t-56.5 -45t-67 -55.5q-49 -41 -76.5 -69.5t-41 -60.5t-16.5 -75t-3 -114q0 -78 7 -127.5t34 -79t78 -40.5t139 -11q57 0 130 7t145 23l20 -102 q-72 -16 -149.5 -25.5t-149.5 -9.5q-119 0 -192.5 20.5t-113.5 64.5t-53.5 111.5t-13.5 164.5zM496 801v196h127v-196h-127z" />
<glyph unicode="&#xc0;" horiz-adv-x="1271" d="M72 0l475 1364h178l475 -1364h-119l-129 358h-635l-127 -358h-118zM354 463h561l-280 831zM383 1624l59 90q66 -47 127 -87t123 -77l-55 -84q-66 35 -130.5 76t-123.5 82z" />
<glyph unicode="&#xc1;" horiz-adv-x="1271" d="M72 0l475 1364h178l475 -1364h-119l-129 358h-635l-127 -358h-118zM354 463h561l-280 831zM578 1550q61 37 122.5 77t126.5 87l60 -90q-59 -41 -124 -82t-130 -76z" />
<glyph unicode="&#xc2;" horiz-adv-x="1271" d="M72 0l475 1364h178l475 -1364h-119l-129 358h-635l-127 -358h-118zM354 463h561l-280 831zM381 1546q66 41 125.5 80t130.5 88q63 -47 119.5 -85t134.5 -83l-43 -80q-72 39 -115.5 64.5t-95.5 58.5q-51 -31 -98 -59.5t-113 -63.5z" />
<glyph unicode="&#xc3;" horiz-adv-x="1271" d="M72 0l475 1364h178l475 -1364h-119l-129 358h-635l-127 -358h-118zM354 463h561l-280 831zM364 1556q29 41 74 71t94 30q29 0 52.5 -8.5t58.5 -24.5q41 -18 66.5 -27.5t50.5 -9.5q53 0 98 51l59 -53q-27 -43 -67.5 -71.5t-89.5 -28.5q-27 0 -51.5 7.5t-65.5 25.5 q-35 16 -60.5 26t-54.5 10q-35 0 -59.5 -15t-50.5 -42z" />
<glyph unicode="&#xc4;" horiz-adv-x="1271" d="M72 0l475 1364h178l475 -1364h-119l-129 358h-635l-127 -358h-118zM354 463h561l-280 831zM391 1503v123h135v-123h-135zM743 1503v123h135v-123h-135z" />
<glyph unicode="&#xc5;" horiz-adv-x="1271" d="M72 0l475 1364h178l475 -1364h-119l-129 358h-635l-127 -358h-118zM354 463h561l-280 831zM505 1546q0 55 33 90t96 35t96 -35t33 -90q0 -53 -32.5 -90t-96.5 -37q-63 0 -96 37t-33 90zM573 1546q0 -29 15.5 -47t45.5 -18q31 0 45.5 18t14.5 47q0 66 -60 66 q-61 0 -61 -66z" />
<glyph unicode="&#xc6;" horiz-adv-x="1718" d="M72 0l475 1364h1026v-109h-811l170 -485h596v-108h-559l192 -553h414v-109h-494l-129 358h-635l-127 -358h-118zM354 463h561l-280 831z" />
<glyph unicode="&#xc7;" horiz-adv-x="1046" d="M154 375v614q0 94 24.5 168t77.5 125t140 76.5t210 25.5q74 0 162 -7t166 -23l-14 -105q-70 12 -154 19.5t-150 7.5q-92 0 -157.5 -15.5t-106.5 -49t-59.5 -89t-18.5 -135.5v-610q0 -80 18.5 -135.5t59.5 -89t106.5 -49t157.5 -15.5q66 0 150 7t154 20l14 -105 q-72 -14 -155 -21t-154 -9l-27 -123q14 4 29.5 5t27.5 1q61 0 105.5 -31.5t44.5 -97.5q0 -68 -49 -113t-146 -45q-43 0 -84 8t-75 21l18 71q29 -8 62.5 -13t62.5 -5q63 0 90 18.5t27 53.5q0 63 -97 63q-29 0 -62.5 -4t-55.5 -8l43 201q-209 14 -297 115.5t-88 277.5z" />
<glyph unicode="&#xc8;" horiz-adv-x="1097" d="M184 0v1364h768v-109h-647v-505h602v-109h-602v-532h649v-109h-770zM351 1624l59 90q66 -47 127 -87t123 -77l-55 -84q-66 35 -130.5 76t-123.5 82z" />
<glyph unicode="&#xc9;" horiz-adv-x="1097" d="M184 0v1364h768v-109h-647v-505h602v-109h-602v-532h649v-109h-770zM471 1550q61 37 122.5 77t126.5 87l60 -90q-59 -41 -124 -82t-130 -76z" />
<glyph unicode="&#xca;" horiz-adv-x="1097" d="M184 0v1364h768v-109h-647v-505h602v-109h-602v-532h649v-109h-770zM325 1546q66 41 125.5 80t130.5 88q63 -47 119.5 -85t134.5 -83l-43 -80q-72 39 -115.5 64.5t-95.5 58.5q-51 -31 -98 -59.5t-113 -63.5z" />
<glyph unicode="&#xcb;" horiz-adv-x="1097" d="M184 0v1364h768v-109h-647v-505h602v-109h-602v-532h649v-109h-770zM336 1503v123h135v-123h-135zM688 1503v123h135v-123h-135z" />
<glyph unicode="&#xcc;" horiz-adv-x="509" d="M15 1624l59 90q66 -47 127 -87t123 -77l-55 -84q-66 35 -130.5 76t-123.5 82zM195 0v1364h120v-1364h-120z" />
<glyph unicode="&#xcd;" horiz-adv-x="509" d="M195 0v1364h120v-1364h-120zM197 1550q61 37 122.5 77t126.5 87l60 -90q-59 -41 -124 -82t-130 -76z" />
<glyph unicode="&#xce;" horiz-adv-x="509" d="M2 1546q66 41 125.5 80t130.5 88q63 -47 119.5 -85t134.5 -83l-43 -80q-72 39 -115.5 64.5t-95.5 58.5q-51 -31 -98 -59.5t-113 -63.5zM195 0v1364h120v-1364h-120z" />
<glyph unicode="&#xcf;" horiz-adv-x="509" d="M12 1503v123h135v-123h-135zM195 0v1364h120v-1364h-120zM364 1503v123h135v-123h-135z" />
<glyph unicode="&#xd0;" horiz-adv-x="1284" d="M102 643v102h158v619h451q125 0 206.5 -30.5t131 -84t69 -128t19.5 -160.5v-558q0 -86 -19.5 -160.5t-69 -128t-131 -84t-206.5 -30.5h-451v643h-158zM381 109h332q172 0 237.5 71.5t65.5 216.5v570q0 145 -65.5 216.5t-237.5 71.5h-332v-510h289v-102h-289v-534z" />
<glyph unicode="&#xd1;" horiz-adv-x="1306" d="M184 0v1364h176l648 -1247v1247h114v-1364h-176l-647 1245v-1245h-115zM403 1556q29 41 74 71t94 30q29 0 52.5 -8.5t58.5 -24.5q41 -18 66.5 -27.5t50.5 -9.5q53 0 98 51l59 -53q-27 -43 -67.5 -71.5t-89.5 -28.5q-27 0 -51.5 7.5t-65.5 25.5q-35 16 -60.5 26t-54.5 10 q-35 0 -59.5 -15t-50.5 -42z" />
<glyph unicode="&#xd2;" horiz-adv-x="1261" d="M154 385v594q0 88 25.5 161.5t81.5 128t147.5 85t222.5 30.5t222 -30.5t147.5 -85t82 -128t25.5 -161.5v-594q0 -88 -25.5 -161.5t-82 -128t-147.5 -85t-222 -30.5t-222.5 30.5t-147.5 85t-81.5 128t-25.5 161.5zM274 389q0 -145 80 -223t277 -78t276.5 78t79.5 223v586 q0 145 -80 223t-276 78q-197 0 -277 -78t-80 -223v-586zM410 1624l59 90q66 -47 127 -87t123 -77l-55 -84q-66 35 -130.5 76t-123.5 82z" />
<glyph unicode="&#xd3;" horiz-adv-x="1261" d="M154 385v594q0 88 25.5 161.5t81.5 128t147.5 85t222.5 30.5t222 -30.5t147.5 -85t82 -128t25.5 -161.5v-594q0 -88 -25.5 -161.5t-82 -128t-147.5 -85t-222 -30.5t-222.5 30.5t-147.5 85t-81.5 128t-25.5 161.5zM274 389q0 -145 80 -223t277 -78t276.5 78t79.5 223v586 q0 145 -80 223t-276 78q-197 0 -277 -78t-80 -223v-586zM553 1550q61 37 122.5 77t126.5 87l60 -90q-59 -41 -124 -82t-130 -76z" />
<glyph unicode="&#xd4;" horiz-adv-x="1261" d="M154 385v594q0 88 25.5 161.5t81.5 128t147.5 85t222.5 30.5t222 -30.5t147.5 -85t82 -128t25.5 -161.5v-594q0 -88 -25.5 -161.5t-82 -128t-147.5 -85t-222 -30.5t-222.5 30.5t-147.5 85t-81.5 128t-25.5 161.5zM274 389q0 -145 80 -223t277 -78t276.5 78t79.5 223v586 q0 145 -80 223t-276 78q-197 0 -277 -78t-80 -223v-586zM376 1546q66 41 125.5 80t130.5 88q63 -47 119.5 -85t134.5 -83l-43 -80q-72 39 -115.5 64.5t-95.5 58.5q-51 -31 -98 -59.5t-113 -63.5z" />
<glyph unicode="&#xd5;" horiz-adv-x="1261" d="M154 385v594q0 88 25.5 161.5t81.5 128t147.5 85t222.5 30.5t222 -30.5t147.5 -85t82 -128t25.5 -161.5v-594q0 -88 -25.5 -161.5t-82 -128t-147.5 -85t-222 -30.5t-222.5 30.5t-147.5 85t-81.5 128t-25.5 161.5zM274 389q0 -145 80 -223t277 -78t276.5 78t79.5 223v586 q0 145 -80 223t-276 78q-197 0 -277 -78t-80 -223v-586zM366 1556q29 41 74 71t94 30q29 0 52.5 -8.5t58.5 -24.5q41 -18 66.5 -27.5t50.5 -9.5q53 0 98 51l59 -53q-27 -43 -67.5 -71.5t-89.5 -28.5q-27 0 -51.5 7.5t-65.5 25.5q-35 16 -60.5 26t-54.5 10q-35 0 -59.5 -15 t-50.5 -42z" />
<glyph unicode="&#xd6;" horiz-adv-x="1261" d="M154 385v594q0 88 25.5 161.5t81.5 128t147.5 85t222.5 30.5t222 -30.5t147.5 -85t82 -128t25.5 -161.5v-594q0 -88 -25.5 -161.5t-82 -128t-147.5 -85t-222 -30.5t-222.5 30.5t-147.5 85t-81.5 128t-25.5 161.5zM274 389q0 -145 80 -223t277 -78t276.5 78t79.5 223v586 q0 145 -80 223t-276 78q-197 0 -277 -78t-80 -223v-586zM387 1503v123h135v-123h-135zM739 1503v123h135v-123h-135z" />
<glyph unicode="&#xd7;" horiz-adv-x="1122" d="M164 176l321 324l-321 323l74 74l323 -322l324 322l73 -74l-321 -323l321 -324l-73 -74l-324 322l-323 -322z" />
<glyph unicode="&#xd8;" horiz-adv-x="1261" d="M154 -82l100 182q-53 53 -76.5 126t-23.5 159v594q0 88 25.5 161.5t81.5 128t147.5 85t222.5 30.5q98 0 174 -17t131 -50l94 170l78 -43l-102 -180q53 -53 77.5 -126t24.5 -159v-594q0 -88 -25.5 -161.5t-82 -128t-147.5 -85t-222 -30.5q-193 0 -305 65l-95 -168z M274 389q0 -111 41 -178l566 1008q-43 29 -104.5 43t-145.5 14q-197 0 -277 -78t-80 -223v-586zM381 145q82 -57 250 -57q197 0 276.5 78t79.5 223v586q0 106 -43 178z" />
<glyph unicode="&#xd9;" horiz-adv-x="1290" d="M174 387v977h121v-977q0 -143 88 -221t262 -78t262 78t88 221v977h121v-977q0 -86 -26.5 -160.5t-84 -130t-146.5 -86t-214 -30.5t-214 30.5t-146.5 86t-84 130t-26.5 160.5zM422 1624l59 90q66 -47 127 -87t123 -77l-55 -84q-66 35 -130.5 76t-123.5 82z" />
<glyph unicode="&#xda;" horiz-adv-x="1290" d="M174 387v977h121v-977q0 -143 88 -221t262 -78t262 78t88 221v977h121v-977q0 -86 -26.5 -160.5t-84 -130t-146.5 -86t-214 -30.5t-214 30.5t-146.5 86t-84 130t-26.5 160.5zM564 1550q61 37 122.5 77t126.5 87l60 -90q-59 -41 -124 -82t-130 -76z" />
<glyph unicode="&#xdb;" horiz-adv-x="1290" d="M174 387v977h121v-977q0 -143 88 -221t262 -78t262 78t88 221v977h121v-977q0 -86 -26.5 -160.5t-84 -130t-146.5 -86t-214 -30.5t-214 30.5t-146.5 86t-84 130t-26.5 160.5zM391 1546q66 41 125.5 80t130.5 88q63 -47 119.5 -85t134.5 -83l-43 -80q-72 39 -115.5 64.5 t-95.5 58.5q-51 -31 -98 -59.5t-113 -63.5z" />
<glyph unicode="&#xdc;" horiz-adv-x="1290" d="M174 387v977h121v-977q0 -143 88 -221t262 -78t262 78t88 221v977h121v-977q0 -86 -26.5 -160.5t-84 -130t-146.5 -86t-214 -30.5t-214 30.5t-146.5 86t-84 130t-26.5 160.5zM402 1503v123h135v-123h-135zM754 1503v123h135v-123h-135z" />
<glyph unicode="&#xdd;" horiz-adv-x="1112" d="M31 1364h125l399 -823l401 823h125l-465 -944v-420h-120v420zM482 1550q61 37 122.5 77t126.5 87l60 -90q-59 -41 -124 -82t-130 -76z" />
<glyph unicode="&#xde;" horiz-adv-x="1114" d="M184 0v1364h121v-250h342q102 0 174 -22.5t116 -63.5t64.5 -99.5t20.5 -129.5v-213q0 -72 -20.5 -130.5t-64.5 -99.5t-115.5 -63.5t-174.5 -22.5h-342v-270h-121zM305 379h344q129 0 190.5 47t61.5 160v213q0 113 -61.5 160t-190.5 47h-344v-627z" />
<glyph unicode="&#xdf;" horiz-adv-x="1214" d="M184 0v1085q0 170 96.5 265.5t274.5 95.5q92 0 158.5 -24.5t108.5 -65.5t62.5 -95.5t20.5 -115.5q0 -57 -14 -123t-66 -158q-39 -70 -54 -109.5t-15 -80.5q0 -12 3 -26.5t17.5 -34t45 -46t85.5 -63.5q61 -41 98 -68.5t55.5 -56.5t25 -64.5t6.5 -91.5q0 -57 -11.5 -102 t-43 -77t-89 -48t-151.5 -16q-47 0 -106.5 9t-110.5 29l18 99q23 -6 50.5 -12.5t55 -10.5t52 -6t43.5 -2q51 0 85 5t53 19.5t27.5 40t8.5 66.5q0 39 -3 65.5t-19.5 49t-50.5 47t-95 63.5q-57 35 -90 65t-50.5 57.5t-22.5 55t-5 58.5q0 55 16.5 99t44.5 97q31 55 48.5 93.5 t26.5 68t11 55t2 56.5q0 90 -55 143t-178 53q-121 0 -185.5 -65.5t-64.5 -218.5v-1059h-119z" />
<glyph unicode="&#xe0;" horiz-adv-x="993" d="M133 258q0 158 73 217.5t220 59.5h295v194q0 104 -56.5 143t-179.5 39q-74 0 -149.5 -9t-145.5 -23l-18 100q59 16 144 27.5t163 11.5q195 0 278 -74t83 -215v-729h-103l-8 78q-72 -45 -156 -71.5t-182 -26.5q-133 0 -195.5 71.5t-62.5 206.5zM252 256q0 -43 6 -76 t23.5 -53.5t49 -30.5t85.5 -10q74 0 155.5 27.5t149.5 74.5v240h-291q-102 0 -140 -37t-38 -135zM281 1288l59 90q68 -47 137.5 -92t130.5 -84l-55 -84q-63 35 -135 79t-137 91z" />
<glyph unicode="&#xe1;" horiz-adv-x="993" d="M133 258q0 158 73 217.5t220 59.5h295v194q0 104 -56.5 143t-179.5 39q-74 0 -149.5 -9t-145.5 -23l-18 100q59 16 144 27.5t163 11.5q195 0 278 -74t83 -215v-729h-103l-8 78q-72 -45 -156 -71.5t-182 -26.5q-133 0 -195.5 71.5t-62.5 206.5zM252 256q0 -43 6 -76 t23.5 -53.5t49 -30.5t85.5 -10q74 0 155.5 27.5t149.5 74.5v240h-291q-102 0 -140 -37t-38 -135zM377 1202q61 39 130.5 84t137.5 92l59 -90q-66 -47 -137.5 -91t-134.5 -79z" />
<glyph unicode="&#xe2;" horiz-adv-x="993" d="M133 258q0 158 73 217.5t220 59.5h295v194q0 104 -56.5 143t-179.5 39q-74 0 -149.5 -9t-145.5 -23l-18 100q59 16 144 27.5t163 11.5q195 0 278 -74t83 -215v-729h-103l-8 78q-72 -45 -156 -71.5t-182 -26.5q-133 0 -195.5 71.5t-62.5 206.5zM241 1200q66 39 129.5 81 t135.5 91q66 -47 126 -88t136 -84l-43 -80q-68 35 -117 66t-102 61q-51 -31 -102.5 -61.5t-117.5 -65.5zM252 256q0 -43 6 -76t23.5 -53.5t49 -30.5t85.5 -10q74 0 155.5 27.5t149.5 74.5v240h-291q-102 0 -140 -37t-38 -135z" />
<glyph unicode="&#xe3;" horiz-adv-x="993" d="M133 258q0 158 73 217.5t220 59.5h295v194q0 104 -56.5 143t-179.5 39q-74 0 -149.5 -9t-145.5 -23l-18 100q59 16 144 27.5t163 11.5q195 0 278 -74t83 -215v-729h-103l-8 78q-72 -45 -156 -71.5t-182 -26.5q-133 0 -195.5 71.5t-62.5 206.5zM237 1202q29 41 74 71 t94 30q29 0 52.5 -8.5t58.5 -24.5q41 -18 66.5 -27.5t50.5 -9.5q53 0 98 51l59 -53q-27 -43 -67.5 -72t-89.5 -29q-27 0 -51.5 7.5t-65.5 25.5q-35 16 -60.5 26.5t-54.5 10.5q-35 0 -59.5 -15.5t-50.5 -41.5zM252 256q0 -43 6 -76t23.5 -53.5t49 -30.5t85.5 -10 q74 0 155.5 27.5t149.5 74.5v240h-291q-102 0 -140 -37t-38 -135z" />
<glyph unicode="&#xe4;" horiz-adv-x="993" d="M133 258q0 158 73 217.5t220 59.5h295v194q0 104 -56.5 143t-179.5 39q-74 0 -149.5 -9t-145.5 -23l-18 100q59 16 144 27.5t163 11.5q195 0 278 -74t83 -215v-729h-103l-8 78q-72 -45 -156 -71.5t-182 -26.5q-133 0 -195.5 71.5t-62.5 206.5zM252 256q0 -43 6 -76 t23.5 -53.5t49 -30.5t85.5 -10q74 0 155.5 27.5t149.5 74.5v240h-291q-102 0 -140 -37t-38 -135zM287 1143v135h127v-135h-127zM635 1143v135h127v-135h-127z" />
<glyph unicode="&#xe5;" horiz-adv-x="993" d="M133 258q0 158 73 217.5t220 59.5h295v194q0 104 -56.5 143t-179.5 39q-74 0 -149.5 -9t-145.5 -23l-18 100q59 16 144 27.5t163 11.5q195 0 278 -74t83 -215v-729h-103l-8 78q-72 -45 -156 -71.5t-182 -26.5q-133 0 -195.5 71.5t-62.5 206.5zM252 256q0 -43 6 -76 t23.5 -53.5t49 -30.5t85.5 -10q74 0 155.5 27.5t149.5 74.5v240h-291q-102 0 -140 -37t-38 -135zM368 1239q0 55 35 92t98 37t98.5 -37t35.5 -92q0 -53 -35 -92t-99 -39q-63 0 -98 39t-35 92zM436 1239q0 -29 17.5 -49.5t47.5 -20.5q31 0 47.5 20.5t16.5 49.5 q0 31 -16.5 50.5t-47.5 19.5t-48 -19.5t-17 -50.5z" />
<glyph unicode="&#xe6;" horiz-adv-x="1579" d="M133 264q0 84 18.5 137.5t54.5 84t91 43t129 12.5h295v139q0 111 -52.5 171t-174.5 60q-84 0 -156 -9t-148 -23l-16 100q63 16 138 27.5t167 11.5q217 0 301 -139q27 37 57.5 62.5t67.5 42.5t83 25.5t106 8.5q104 0 174.5 -27.5t111.5 -77t58.5 -116t17.5 -142.5v-192 h-616v-152q4 -121 60 -174t192 -53q33 0 74.5 3t86.5 9t87 13.5t75 15.5l21 -96q-72 -23 -166 -36t-178 -13q-117 0 -193 30.5t-117 89.5q-66 -53 -149.5 -86.5t-198.5 -33.5q-147 0 -224 67.5t-77 216.5zM252 262q0 -106 46 -141t138 -35t168 29.5t135 79.5 q-10 35 -14 70.5t-4 76.5v92h-289q-49 0 -84 -6t-56.5 -24.5t-30.5 -52.5t-9 -89zM840 569h499v90q0 125 -53 190.5t-192 65.5q-141 0 -197.5 -64.5t-56.5 -191.5v-90z" />
<glyph unicode="&#xe7;" horiz-adv-x="819" d="M113 324v350q0 80 19.5 144.5t63.5 108.5t116.5 67.5t176.5 23.5q51 0 113 -7t115 -22l-15 -98q-121 20 -213 20q-139 0 -198.5 -50t-59.5 -183v-359q0 -133 59.5 -183t198.5 -50q92 0 213 20l15 -98q-51 -12 -111.5 -19t-109.5 -9l-27 -123q14 4 29.5 5t27.5 1 q61 0 105.5 -32t44.5 -97q0 -68 -49 -113t-146 -45q-43 0 -84 8t-75 21l18 71q29 -8 62.5 -13t62.5 -5q63 0 90 18.5t27 53.5q0 63 -97 63q-29 0 -62.5 -4t-55.5 -8l43 203q-164 16 -230.5 105t-66.5 235z" />
<glyph unicode="&#xe8;" horiz-adv-x="980" d="M123 342v313q0 76 18.5 142.5t62.5 116t115.5 77t176.5 27.5q104 0 174.5 -27.5t111.5 -77t58.5 -116t17.5 -142.5v-192h-616v-125q0 -68 12 -116t43 -78.5t81 -45t124 -14.5q78 0 159.5 13.5t155.5 33.5l21 -96q-70 -25 -161 -40t-183 -15q-104 0 -176 25.5t-115 73.5 t-61.5 114.5t-18.5 148.5zM242 569h499v90q0 125 -53 190.5t-192 65.5q-141 0 -197.5 -64.5t-56.5 -191.5v-90zM273 1288l59 90q68 -47 137.5 -92t130.5 -84l-55 -84q-63 35 -135 79t-137 91z" />
<glyph unicode="&#xe9;" horiz-adv-x="980" d="M123 342v313q0 76 18.5 142.5t62.5 116t115.5 77t176.5 27.5q104 0 174.5 -27.5t111.5 -77t58.5 -116t17.5 -142.5v-192h-616v-125q0 -68 12 -116t43 -78.5t81 -45t124 -14.5q78 0 159.5 13.5t155.5 33.5l21 -96q-70 -25 -161 -40t-183 -15q-104 0 -176 25.5t-115 73.5 t-61.5 114.5t-18.5 148.5zM242 569h499v90q0 125 -53 190.5t-192 65.5q-141 0 -197.5 -64.5t-56.5 -191.5v-90zM385 1202q61 39 130.5 84t137.5 92l59 -90q-66 -47 -137.5 -91t-134.5 -79z" />
<glyph unicode="&#xea;" horiz-adv-x="980" d="M123 342v313q0 76 18.5 142.5t62.5 116t115.5 77t176.5 27.5q104 0 174.5 -27.5t111.5 -77t58.5 -116t17.5 -142.5v-192h-616v-125q0 -68 12 -116t43 -78.5t81 -45t124 -14.5q78 0 159.5 13.5t155.5 33.5l21 -96q-70 -25 -161 -40t-183 -15q-104 0 -176 25.5t-115 73.5 t-61.5 114.5t-18.5 148.5zM242 569h499v90q0 125 -53 190.5t-192 65.5q-141 0 -197.5 -64.5t-56.5 -191.5v-90zM252 1200q66 39 129.5 81t135.5 91q66 -47 126 -88t136 -84l-43 -80q-68 35 -117 66t-102 61q-51 -31 -102.5 -61.5t-117.5 -65.5z" />
<glyph unicode="&#xeb;" horiz-adv-x="980" d="M123 342v313q0 76 18.5 142.5t62.5 116t115.5 77t176.5 27.5q104 0 174.5 -27.5t111.5 -77t58.5 -116t17.5 -142.5v-192h-616v-125q0 -68 12 -116t43 -78.5t81 -45t124 -14.5q78 0 159.5 13.5t155.5 33.5l21 -96q-70 -25 -161 -40t-183 -15q-104 0 -176 25.5t-115 73.5 t-61.5 114.5t-18.5 148.5zM242 569h499v90q0 125 -53 190.5t-192 65.5q-141 0 -197.5 -64.5t-56.5 -191.5v-90zM256 1143v135h127v-135h-127zM604 1143v135h127v-135h-127z" />
<glyph unicode="&#xec;" horiz-adv-x="466" d="M-16 1288l59 90q68 -47 137.5 -92t130.5 -84l-55 -84q-63 35 -135 79t-137 91zM174 0v997h119v-997h-119z" />
<glyph unicode="&#xed;" horiz-adv-x="466" d="M172 1202q61 39 130.5 84t137.5 92l59 -90q-66 -47 -137.5 -91t-134.5 -79zM174 0v997h119v-997h-119z" />
<glyph unicode="&#xee;" horiz-adv-x="466" d="M-27 1200q66 39 129.5 81t135.5 91q66 -47 126 -88t136 -84l-43 -80q-68 35 -117 66t-102 61q-51 -31 -102.5 -61.5t-117.5 -65.5zM174 0v997h119v-997h-119z" />
<glyph unicode="&#xef;" horiz-adv-x="466" d="M-2 1143v135h127v-135h-127zM174 0v997h119v-997h-119zM346 1143v135h127v-135h-127z" />
<glyph unicode="&#xf0;" horiz-adv-x="1050" d="M133 342v242q0 193 100.5 277.5t264.5 84.5q92 0 161.5 -24.5t128.5 -71.5q-2 102 -41.5 186t-125.5 150l-172 -133l-50 67l150 117q-51 33 -111.5 58.5t-130.5 47.5l31 93q86 -29 159.5 -61t135.5 -72l131 104l51 -68l-113 -88q102 -86 153.5 -203.5t51.5 -283.5v-422 q0 -78 -21.5 -143.5t-67.5 -114.5t-119.5 -76.5t-178.5 -27.5q-104 0 -178 27.5t-120 76.5t-67.5 114.5t-21.5 143.5zM252 338q0 -127 63.5 -189.5t204.5 -62.5t204.5 62.5t63.5 189.5v379q-35 47 -111.5 85t-168.5 38q-141 0 -198.5 -62.5t-57.5 -189.5v-250z" />
<glyph unicode="&#xf1;" d="M174 0v997h105l8 -90q39 18 91 39t106.5 36t108.5 25.5t99 10.5q117 0 164 -60.5t47 -164.5v-793h-119v807q0 55 -27.5 77.5t-80.5 22.5q-31 0 -77 -9t-98 -24.5t-106.5 -36t-101.5 -44.5v-793h-119zM268 1202q29 41 74 71t94 30q29 0 52.5 -8.5t58.5 -24.5 q41 -18 66.5 -27.5t50.5 -9.5q53 0 98 51l59 -53q-27 -43 -67.5 -72t-89.5 -29q-27 0 -51.5 7.5t-65.5 25.5q-35 16 -60.5 26.5t-54.5 10.5q-35 0 -59.5 -15.5t-50.5 -41.5z" />
<glyph unicode="&#xf2;" horiz-adv-x="1019" d="M123 342v313q0 76 21.5 142.5t67.5 116t120 77t178 27.5t178 -27.5t120 -77t67.5 -116t21.5 -142.5v-313q0 -78 -21.5 -143.5t-67.5 -114.5t-120 -76.5t-178 -27.5t-178 27.5t-120 76.5t-67.5 114.5t-21.5 143.5zM242 338q0 -127 63.5 -189.5t204.5 -62.5t204.5 62.5 t63.5 189.5v321q0 127 -63.5 189.5t-204.5 62.5t-204.5 -62.5t-63.5 -189.5v-321zM308 1288l59 90q68 -47 137.5 -92t130.5 -84l-55 -84q-63 35 -135 79t-137 91z" />
<glyph unicode="&#xf3;" horiz-adv-x="1019" d="M123 342v313q0 76 21.5 142.5t67.5 116t120 77t178 27.5t178 -27.5t120 -77t67.5 -116t21.5 -142.5v-313q0 -78 -21.5 -143.5t-67.5 -114.5t-120 -76.5t-178 -27.5t-178 27.5t-120 76.5t-67.5 114.5t-21.5 143.5zM242 338q0 -127 63.5 -189.5t204.5 -62.5t204.5 62.5 t63.5 189.5v321q0 127 -63.5 189.5t-204.5 62.5t-204.5 -62.5t-63.5 -189.5v-321zM410 1202q61 39 130.5 84t137.5 92l59 -90q-66 -47 -137.5 -91t-134.5 -79z" />
<glyph unicode="&#xf4;" horiz-adv-x="1019" d="M123 342v313q0 76 21.5 142.5t67.5 116t120 77t178 27.5t178 -27.5t120 -77t67.5 -116t21.5 -142.5v-313q0 -78 -21.5 -143.5t-67.5 -114.5t-120 -76.5t-178 -27.5t-178 27.5t-120 76.5t-67.5 114.5t-21.5 143.5zM242 338q0 -127 63.5 -189.5t204.5 -62.5t204.5 62.5 t63.5 189.5v321q0 127 -63.5 189.5t-204.5 62.5t-204.5 -62.5t-63.5 -189.5v-321zM247 1200q66 39 129.5 81t135.5 91q66 -47 126 -88t136 -84l-43 -80q-68 35 -117 66t-102 61q-51 -31 -102.5 -61.5t-117.5 -65.5z" />
<glyph unicode="&#xf5;" horiz-adv-x="1019" d="M123 342v313q0 76 21.5 142.5t67.5 116t120 77t178 27.5t178 -27.5t120 -77t67.5 -116t21.5 -142.5v-313q0 -78 -21.5 -143.5t-67.5 -114.5t-120 -76.5t-178 -27.5t-178 27.5t-120 76.5t-67.5 114.5t-21.5 143.5zM242 338q0 -127 63.5 -189.5t204.5 -62.5t204.5 62.5 t63.5 189.5v321q0 127 -63.5 189.5t-204.5 62.5t-204.5 -62.5t-63.5 -189.5v-321zM247 1202q29 41 74 71t94 30q29 0 52.5 -8.5t58.5 -24.5q41 -18 66.5 -27.5t50.5 -9.5q53 0 98 51l59 -53q-27 -43 -67.5 -72t-89.5 -29q-27 0 -51.5 7.5t-65.5 25.5q-35 16 -60.5 26.5 t-54.5 10.5q-35 0 -59.5 -15.5t-50.5 -41.5z" />
<glyph unicode="&#xf6;" horiz-adv-x="1019" d="M123 342v313q0 76 21.5 142.5t67.5 116t120 77t178 27.5t178 -27.5t120 -77t67.5 -116t21.5 -142.5v-313q0 -78 -21.5 -143.5t-67.5 -114.5t-120 -76.5t-178 -27.5t-178 27.5t-120 76.5t-67.5 114.5t-21.5 143.5zM242 338q0 -127 63.5 -189.5t204.5 -62.5t204.5 62.5 t63.5 189.5v321q0 127 -63.5 189.5t-204.5 62.5t-204.5 -62.5t-63.5 -189.5v-321zM273 1143v135h127v-135h-127zM621 1143v135h127v-135h-127z" />
<glyph unicode="&#xf7;" horiz-adv-x="1159" d="M164 444v107h831v-107h-831zM516 90v156h127v-156h-127zM516 750v155h127v-155h-127z" />
<glyph unicode="&#xf8;" horiz-adv-x="1019" d="M123 -59l86 143q-47 49 -66.5 114.5t-19.5 143.5v313q0 76 21.5 142.5t67.5 116t120 77t178 27.5q74 0 131 -14.5t102 -38.5l82 135l72 -45l-88 -144q47 -47 67.5 -113.5t20.5 -142.5v-313q0 -78 -21.5 -143.5t-67.5 -114.5t-120 -76.5t-178 -27.5q-74 0 -132.5 14 t-101.5 39l-81 -135zM242 338q0 -90 30 -148l414 680q-66 41 -176 41q-141 0 -204.5 -62.5t-63.5 -189.5v-321zM334 127q61 -41 176 -41q141 0 204.5 62.5t63.5 189.5v321q0 90 -33 148z" />
<glyph unicode="&#xf9;" d="M164 205v792h119v-807q0 -55 27.5 -77.5t80.5 -22.5q31 0 77 8t98 23.5t106.5 37t101.5 46.5v792h119v-997h-105l-8 90q-41 -18 -92 -38.5t-105.5 -36t-108.5 -25.5t-99 -10q-117 0 -164 60t-47 165zM306 1288l59 90q68 -47 137.5 -92t130.5 -84l-55 -84q-63 35 -135 79 t-137 91z" />
<glyph unicode="&#xfa;" d="M164 205v792h119v-807q0 -55 27.5 -77.5t80.5 -22.5q31 0 77 8t98 23.5t106.5 37t101.5 46.5v792h119v-997h-105l-8 90q-41 -18 -92 -38.5t-105.5 -36t-108.5 -25.5t-99 -10q-117 0 -164 60t-47 165zM428 1202q61 39 130.5 84t137.5 92l59 -90q-66 -47 -137.5 -91 t-134.5 -79z" />
<glyph unicode="&#xfb;" d="M164 205v792h119v-807q0 -55 27.5 -77.5t80.5 -22.5q31 0 77 8t98 23.5t106.5 37t101.5 46.5v792h119v-997h-105l-8 90q-41 -18 -92 -38.5t-105.5 -36t-108.5 -25.5t-99 -10q-117 0 -164 60t-47 165zM284 1200q66 39 129.5 81t135.5 91q66 -47 126 -88t136 -84l-43 -80 q-68 35 -117 66t-102 61q-51 -31 -102.5 -61.5t-117.5 -65.5z" />
<glyph unicode="&#xfc;" d="M164 205v792h119v-807q0 -55 27.5 -77.5t80.5 -22.5q31 0 77 8t98 23.5t106.5 37t101.5 46.5v792h119v-997h-105l-8 90q-41 -18 -92 -38.5t-105.5 -36t-108.5 -25.5t-99 -10q-117 0 -164 60t-47 165zM303 1143v135h127v-135h-127zM651 1143v135h127v-135h-127z" />
<glyph unicode="&#xfd;" horiz-adv-x="909" d="M31 997h121l307 -913l309 913h121l-338 -997l-148 -403h-116l149 403h-67zM365 1202q61 39 130.5 84t137.5 92l59 -90q-66 -47 -137.5 -91t-134.5 -79z" />
<glyph unicode="&#xfe;" horiz-adv-x="1060" d="M184 -428v1833l119 16v-516q74 55 161 84t171 29q147 0 215 -70.5t68 -206.5v-454q0 -137 -70 -222t-238 -85q-78 0 -149.5 8t-157.5 24v-415zM303 121q168 -35 311 -35q98 0 141.5 49t43.5 152v454q0 86 -35 128t-137 42q-92 0 -172 -34.5t-152 -92.5v-663z" />
<glyph unicode="&#xff;" horiz-adv-x="909" d="M31 997h121l307 -913l309 913h121l-338 -997l-148 -403h-116l149 403h-67zM223 1143v135h127v-135h-127zM571 1143v135h127v-135h-127z" />
<glyph unicode="&#x152;" horiz-adv-x="1832" d="M154 406v552q0 88 25.5 162t81.5 128.5t147.5 85t222.5 30.5h1057v-109h-648v-485h602v-108h-602v-553h650v-109h-1059q-131 0 -222.5 30.5t-147.5 85t-81.5 128t-25.5 162.5zM274 410q0 -145 80 -223t277 -78h289v1146h-289q-197 0 -277 -77.5t-80 -223.5v-544z" />
<glyph unicode="&#x153;" horiz-adv-x="1636" d="M123 342v313q0 76 21.5 142.5t67.5 116t120 77t178 27.5q123 0 199.5 -40t126.5 -108q41 68 116.5 108t198.5 40q104 0 175 -27.5t112 -77t58 -116t17 -142.5v-192h-616v-137q0 -133 57.5 -187.5t194.5 -54.5q33 0 75 3t87 9t87 13.5t75 15.5l20 -96q-72 -23 -166 -36 t-178 -13q-123 0 -202 38.5t-116 104.5q-47 -66 -119.5 -104.5t-201.5 -38.5q-104 0 -178 27.5t-120 76.5t-67.5 114.5t-21.5 143.5zM242 338q0 -127 63.5 -189.5t204.5 -62.5q268 0 268 240v333q0 127 -63.5 189.5t-204.5 62.5t-204.5 -62.5t-63.5 -189.5v-321zM897 569 h500v90q0 125 -53.5 190.5t-192.5 65.5q-141 0 -197.5 -64.5t-56.5 -191.5v-90z" />
<glyph unicode="&#x178;" horiz-adv-x="1112" d="M31 1364h125l399 -823l401 823h125l-465 -944v-420h-120v420zM311 1503v123h135v-123h-135zM663 1503v123h135v-123h-135z" />
<glyph unicode="&#x2c6;" horiz-adv-x="813" d="M143 1200q66 39 129.5 81t135.5 91q66 -47 126 -88t136 -84l-43 -80q-68 35 -117 66t-102 61q-51 -31 -102.5 -61.5t-117.5 -65.5z" />
<glyph unicode="&#x2dc;" horiz-adv-x="839" d="M143 1202q29 41 74 71t94 30q29 0 52.5 -8.5t58.5 -24.5q41 -18 66.5 -27.5t50.5 -9.5q53 0 98 51l59 -53q-27 -43 -67.5 -72t-89.5 -29q-27 0 -51.5 7.5t-65.5 25.5q-35 16 -60.5 26.5t-54.5 10.5q-35 0 -59.5 -15.5t-50.5 -41.5z" />
<glyph unicode="&#x2000;" horiz-adv-x="857" />
<glyph unicode="&#x2001;" horiz-adv-x="1714" />
<glyph unicode="&#x2002;" horiz-adv-x="857" />
<glyph unicode="&#x2003;" horiz-adv-x="1714" />
<glyph unicode="&#x2004;" horiz-adv-x="571" />
<glyph unicode="&#x2005;" horiz-adv-x="428" />
<glyph unicode="&#x2006;" horiz-adv-x="285" />
<glyph unicode="&#x2007;" horiz-adv-x="285" />
<glyph unicode="&#x2008;" horiz-adv-x="214" />
<glyph unicode="&#x2009;" horiz-adv-x="342" />
<glyph unicode="&#x200a;" horiz-adv-x="95" />
<glyph unicode="&#x2010;" horiz-adv-x="741" d="M133 524v101h475v-101h-475z" />
<glyph unicode="&#x2011;" horiz-adv-x="741" d="M133 524v101h475v-101h-475z" />
<glyph unicode="&#x2012;" horiz-adv-x="741" d="M133 524v101h475v-101h-475z" />
<glyph unicode="&#x2013;" horiz-adv-x="1015" d="M154 524v101h708v-101h-708z" />
<glyph unicode="&#x2014;" horiz-adv-x="1282" d="M154 524v101h974v-101h-974z" />
<glyph unicode="&#x2018;" horiz-adv-x="493" d="M184 1030v176l99 221l57 -24l-74 -197h45v-176h-127z" />
<glyph unicode="&#x2019;" horiz-adv-x="452" d="M164 1032l74 197h-45v176h126v-176l-98 -221z" />
<glyph unicode="&#x201a;" horiz-adv-x="493" d="M154 -197l73 197h-45v176h127v-176l-98 -221z" />
<glyph unicode="&#x201c;" horiz-adv-x="811" d="M184 1030v176l99 221l57 -24l-74 -197h45v-176h-127zM502 1030v176l98 221l57 -24l-73 -197h45v-176h-127z" />
<glyph unicode="&#x201d;" horiz-adv-x="811" d="M154 1032l73 197h-45v176h127v-176l-98 -221zM471 1032l74 197h-45v176h127v-176l-99 -221z" />
<glyph unicode="&#x201e;" horiz-adv-x="811" d="M154 -197l73 197h-45v176h127v-176l-98 -221zM471 -197l74 197h-45v176h127v-176l-99 -221z" />
<glyph unicode="&#x2022;" horiz-adv-x="782" d="M154 662q0 49 18 92t51 75.5t76 51t92 18.5t92 -18.5t76 -51t51.5 -75.5t18.5 -92t-18.5 -92.5t-51.5 -76t-76 -51t-92 -18.5t-92 18.5t-76 51t-51 76t-18 92.5z" />
<glyph unicode="&#x2026;" horiz-adv-x="1445" d="M184 0v176h127v-176h-127zM659 0v176h127v-176h-127zM1135 0v176h127v-176h-127z" />
<glyph unicode="&#x202f;" horiz-adv-x="342" />
<glyph unicode="&#x2039;" horiz-adv-x="598" d="M113 500l262 395l90 -61l-221 -334l221 -334l-90 -62z" />
<glyph unicode="&#x203a;" horiz-adv-x="598" d="M133 166l221 334l-221 334l90 61l262 -395l-262 -396z" />
<glyph unicode="&#x205f;" horiz-adv-x="428" />
<glyph unicode="&#x20ac;" horiz-adv-x="1132" d="M82 442v95h186v260h-186v94h186v57q0 94 24.5 168t78 125t140.5 76.5t210 25.5q74 0 150.5 -7t148.5 -23l-14 -105q-59 12 -134 19.5t-141 7.5q-92 0 -157.5 -15.5t-106.5 -49t-59.5 -89t-18.5 -135.5v-55h428v-94h-428v-260h428v-95h-428v-65q0 -80 18.5 -135.5 t59.5 -89t106.5 -49t157.5 -15.5q66 0 135.5 7t139.5 20l14 -105q-154 -31 -299 -30q-123 0 -210 25.5t-140.5 76.5t-78 124t-24.5 169v67h-186z" />
<glyph unicode="&#x2122;" horiz-adv-x="1069" d="M113 1303v61h323v-61h-129v-361h-65v361h-129zM528 942l11 422h79l119 -322l121 322h74l14 -422h-67l-5 297l-96 -246h-82l-94 248l-6 -299h-68z" />
<glyph unicode="&#x25fc;" horiz-adv-x="993" d="M0 0v993h993v-993h-993z" />
</font>
</defs>
</svg>
